<?xml version="1.0" encoding="iso-8859-1"?>
<!-- Generator: Adobe Illustrator 16.0.0, SVG Export Plug-In . SVG Version: 6.00 Build 0)  -->
<!DOCTYPE svg PUBLIC "-//W3C//DTD SVG 1.1//EN" "http://www.w3.org/Graphics/SVG/1.1/DTD/svg11.dtd">
<svg version="1.1" id="Capa_1" xmlns="http://www.w3.org/2000/svg" xmlns:xlink="http://www.w3.org/1999/xlink" x="0px" y="0px"
	 width="471.85px" height="471.85px" viewBox="0 0 471.85 471.85" style="enable-background:new 0 0 471.85 471.85;"
	 xml:space="preserve">
<g>
	<path d="M235.917,0.002C105.831,0.002,0,105.839,0,235.923c0,130.09,105.836,235.924,235.923,235.924
		c130.088,0,235.927-105.845,235.927-235.924C471.85,105.845,366.011,0.002,235.917,0.002z M235.917,453.226
		c-88.537,0-164.816-53.251-198.644-129.38c0.259,0.007,0.495,0.077,0.753,0.077c3.827,0,7.378-1.018,10.56-2.66
		c1.979,5.069,6.875,8.68,12.635,8.68c7.51,0,13.596-6.08,13.596-13.588c0-0.147-0.044-0.279-0.053-0.421
		c5.951-1.45,10.383-6.774,10.383-13.166c0-7.508-6.084-13.592-13.592-13.592c-4.605,0-8.663,2.309-11.117,5.822
		c-2.561-10.035-11.575-17.478-22.408-17.478c-5.431,0-10.356,1.942-14.312,5.058c-3.304-15.028-5.091-30.634-5.091-46.655
		c0-84.636,48.677-158.084,119.473-193.934c-0.14,1.037-0.326,2.066-0.326,3.149c0,12.808,10.389,23.196,23.205,23.196
		c3.322,0,6.453-0.723,9.312-1.97c2.857,1.248,5.989,1.97,9.313,1.97c5.509,0,10.507-1.995,14.486-5.215
		c2.689,1.092,5.63,1.724,8.717,1.724c12.81,0,23.199-10.386,23.199-23.201c0-9.842-6.149-18.189-14.789-21.567
		c8.115-0.926,16.351-1.447,24.7-1.447c43.806,0,84.606,13.072,118.761,35.462c-1.35-0.149-2.718-0.24-4.118-0.24
		c-9.357,0-17.896,3.431-24.484,9.078c-6.588-5.647-15.124-9.078-24.486-9.078c-4.906,0-9.581,0.977-13.881,2.679
		c-4.057-6.791-11.393-11.39-19.881-11.39c-12.811,0-23.201,10.389-23.201,23.196c0,11.482,8.344,20.946,19.299,22.812
		c0,0.129-0.02,0.257-0.02,0.386c0,20.81,16.864,37.684,37.68,37.684c9.361,0,17.892-3.437,24.48-9.079
		c1.378,1.176,2.853,2.252,4.389,3.223c-5.445,4.247-8.997,10.791-8.997,18.222c0,12.816,10.389,23.204,23.201,23.204
		c12.811,0,23.201-10.388,23.201-23.204c0-5.475-1.985-10.44-5.142-14.402c14.829-5.059,25.525-19.089,25.525-35.642
		c0-4.364-0.782-8.533-2.15-12.432c41.315,39.565,67.127,95.215,67.127,156.817C453.22,355.748,355.733,453.226,235.917,453.226z
		 M244.631,183.404c0,23.098-18.728,41.828-41.824,41.828c-3.989,0-7.828-0.594-11.486-1.642
		c-13.5,21.813-37.561,36.386-65.095,36.386c-42.289,0-76.576-34.284-76.576-76.572c0-42.293,34.288-76.575,76.576-76.575
		c20.839,0,39.709,8.351,53.518,21.852c0.712-12.18,10.715-21.852,23.063-21.852c12.81,0,23.199,10.389,23.199,23.204
		c0,5.902-2.269,11.229-5.902,15.319C234.56,151.936,244.631,166.478,244.631,183.404z M367.859,248.425
		c0,12.816-10.391,23.208-23.201,23.208c-7.825,0-14.713-3.907-18.916-9.837c-3.637,1.141-7.502,1.766-11.513,1.766
		c-1.839,0-3.628-0.175-5.412-0.422c-4.244,5.138-10.604,8.493-17.795,8.493c-12.815,0-23.201-10.392-23.201-23.208
		c0-7.195,3.349-13.548,8.494-17.8c-0.252-1.765-0.429-3.565-0.429-5.398c0-21.174,17.168-38.336,38.343-38.336
		c21.16,0,38.325,17.163,38.325,38.336c0,0.488-0.053,0.966-0.071,1.448C361.425,229.901,367.859,238.379,367.859,248.425z"/>
</g>
<g>
</g>
<g>
</g>
<g>
</g>
<g>
</g>
<g>
</g>
<g>
</g>
<g>
</g>
<g>
</g>
<g>
</g>
<g>
</g>
<g>
</g>
<g>
</g>
<g>
</g>
<g>
</g>
<g>
</g>
</svg>
