<svg width="54" height="54" viewBox="0 0 54 54" fill="none" xmlns="http://www.w3.org/2000/svg">
<circle cx="27" cy="27" r="27" fill="#F4F4F4"/>
<g clip-path="url(#clip0_13_2)">
<path d="M36 26.4352C35.8915 24.6803 35.2719 22.9954 34.2174 21.5883C33.1629 20.1812 31.7197 19.1135 30.0658 18.5167C28.4118 17.92 26.6194 17.8202 24.9094 18.2299C23.1995 18.6395 21.6467 19.5405 20.4427 20.822C19.2387 22.1034 18.4359 23.7091 18.1334 25.4412C17.831 27.1734 18.042 28.9561 18.7405 30.5698C19.439 32.1834 20.5944 33.5574 22.0643 34.5223C23.5342 35.4872 25.2544 36.0009 27.0127 36H32.25C33.2442 35.999 34.1975 35.6036 34.9005 34.9005C35.6036 34.1975 35.999 33.2443 36 32.25V26.4352ZM34.5 32.25C34.5 32.8467 34.2629 33.419 33.841 33.841C33.419 34.2629 32.8467 34.5 32.25 34.5H27.0127C25.9544 34.4995 24.9081 34.276 23.942 33.844C22.9759 33.412 22.1117 32.7812 21.4057 31.9927C20.6964 31.2047 20.1637 30.2741 19.8434 29.2633C19.5231 28.2526 19.4227 27.185 19.5487 26.1322C19.7478 24.4717 20.4939 22.9246 21.6693 21.7349C22.8448 20.5452 24.3827 19.7806 26.0407 19.5615C26.3642 19.521 26.6898 19.5004 27.0157 19.5C28.7636 19.4952 30.4573 20.1059 31.8 21.225C32.5841 21.8767 33.2278 22.6809 33.6919 23.5887C34.156 24.4966 34.4309 25.4892 34.5 26.5065V32.25Z" fill="#131517"/>
<path d="M24 24.75H27C27.1989 24.75 27.3897 24.671 27.5303 24.5303C27.671 24.3897 27.75 24.1989 27.75 24C27.75 23.8011 27.671 23.6103 27.5303 23.4697C27.3897 23.329 27.1989 23.25 27 23.25H24C23.8011 23.25 23.6103 23.329 23.4697 23.4697C23.329 23.6103 23.25 23.8011 23.25 24C23.25 24.1989 23.329 24.3897 23.4697 24.5303C23.6103 24.671 23.8011 24.75 24 24.75Z" fill="#131517"/>
<path d="M30 26.25H24C23.8011 26.25 23.6103 26.329 23.4697 26.4697C23.329 26.6103 23.25 26.8011 23.25 27C23.25 27.1989 23.329 27.3897 23.4697 27.5303C23.6103 27.671 23.8011 27.75 24 27.75H30C30.1989 27.75 30.3897 27.671 30.5303 27.5303C30.671 27.3897 30.75 27.1989 30.75 27C30.75 26.8011 30.671 26.6103 30.5303 26.4697C30.3897 26.329 30.1989 26.25 30 26.25Z" fill="#131517"/>
<path d="M30 29.25H24C23.8011 29.25 23.6103 29.329 23.4697 29.4697C23.329 29.6103 23.25 29.8011 23.25 30C23.25 30.1989 23.329 30.3897 23.4697 30.5303C23.6103 30.671 23.8011 30.75 24 30.75H30C30.1989 30.75 30.3897 30.671 30.5303 30.5303C30.671 30.3897 30.75 30.1989 30.75 30C30.75 29.8011 30.671 29.6103 30.5303 29.4697C30.3897 29.329 30.1989 29.25 30 29.25Z" fill="#131517"/>
</g>
<defs>
<clipPath id="clip0_13_2">
<rect width="18" height="18" fill="white" transform="translate(18 18)"/>
</clipPath>
</defs>
</svg>
