<svg width="54" height="54" viewBox="0 0 54 54" fill="none" xmlns="http://www.w3.org/2000/svg">
<circle cx="27" cy="27" r="27" fill="#272B30"/>
<g clip-path="url(#clip0_31_8)">
<path d="M19.5 26.25H27.75C28.1478 26.25 28.5294 26.092 28.8107 25.8107C29.092 25.5294 29.25 25.1478 29.25 24.75V19.5C29.25 19.1022 29.092 18.7206 28.8107 18.4393C28.5294 18.158 28.1478 18 27.75 18H19.5C19.1022 18 18.7206 18.158 18.4393 18.4393C18.158 18.7206 18 19.1022 18 19.5V24.75C18 25.1478 18.158 25.5294 18.4393 25.8107C18.7206 26.092 19.1022 26.25 19.5 26.25ZM19.5 19.5H27.75V24.75H19.5V19.5Z" fill="white"/>
<path d="M34.5 18H32.25C31.8522 18 31.4706 18.158 31.1893 18.4393C30.908 18.7206 30.75 19.1022 30.75 19.5V24.75C30.75 25.1478 30.908 25.5294 31.1893 25.8107C31.4706 26.092 31.8522 26.25 32.25 26.25H34.5C34.8978 26.25 35.2794 26.092 35.5607 25.8107C35.842 25.5294 36 25.1478 36 24.75V19.5C36 19.1022 35.842 18.7206 35.5607 18.4393C35.2794 18.158 34.8978 18 34.5 18V18ZM34.5 24.75H32.25V19.5H34.5V24.75Z" fill="white"/>
<path d="M21.75 27.75H19.5C19.1022 27.75 18.7206 27.908 18.4393 28.1893C18.158 28.4706 18 28.8522 18 29.25V34.5C18 34.8978 18.158 35.2794 18.4393 35.5607C18.7206 35.842 19.1022 36 19.5 36H21.75C22.1478 36 22.5294 35.842 22.8107 35.5607C23.092 35.2794 23.25 34.8978 23.25 34.5V29.25C23.25 28.8522 23.092 28.4706 22.8107 28.1893C22.5294 27.908 22.1478 27.75 21.75 27.75ZM21.75 34.5H19.5V29.25H21.75V34.5Z" fill="white"/>
<path d="M34.5 27.75H26.25C25.8522 27.75 25.4706 27.908 25.1893 28.1893C24.908 28.4706 24.75 28.8522 24.75 29.25V34.5C24.75 34.8978 24.908 35.2794 25.1893 35.5607C25.4706 35.842 25.8522 36 26.25 36H34.5C34.8978 36 35.2794 35.842 35.5607 35.5607C35.842 35.2794 36 34.8978 36 34.5V29.25C36 28.8522 35.842 28.4706 35.5607 28.1893C35.2794 27.908 34.8978 27.75 34.5 27.75ZM34.5 34.5H26.25V29.25H34.5V34.5Z" fill="white"/>
</g>
<defs>
<clipPath id="clip0_31_8">
<rect width="18" height="18" fill="white" transform="translate(18 18)"/>
</clipPath>
</defs>
</svg>
