<svg width="54" height="54" viewBox="0 0 54 54" fill="none" xmlns="http://www.w3.org/2000/svg">
<circle cx="27" cy="27" r="27" fill="#272B30"/>
<g clip-path="url(#clip0_31_4)">
<path d="M27 33C28.5908 32.9982 30.1158 32.3655 31.2407 31.2407C32.3655 30.1158 32.9982 28.5908 33 27V24C33 22.4087 32.3679 20.8826 31.2426 19.7574C30.1174 18.6321 28.5913 18 27 18C25.4087 18 23.8826 18.6321 22.7574 19.7574C21.6321 20.8826 21 22.4087 21 24V27C21.0018 28.5908 21.6345 30.1158 22.7593 31.2407C23.8842 32.3655 25.4092 32.9982 27 33ZM27 19.5C28.0624 19.502 29.0899 19.8794 29.901 20.5656C30.7121 21.2518 31.2545 22.2026 31.4325 23.25H29.25C29.0511 23.25 28.8603 23.329 28.7197 23.4697C28.579 23.6103 28.5 23.8011 28.5 24C28.5 24.1989 28.579 24.3897 28.7197 24.5303C28.8603 24.671 29.0511 24.75 29.25 24.75H31.5V26.25H29.25C29.0511 26.25 28.8603 26.329 28.7197 26.4697C28.579 26.6103 28.5 26.8011 28.5 27C28.5 27.1989 28.579 27.3897 28.7197 27.5303C28.8603 27.671 29.0511 27.75 29.25 27.75H31.4325C31.2562 28.7981 30.7142 29.7499 29.9028 30.4363C29.0913 31.1227 28.0628 31.4993 27 31.4993C25.9372 31.4993 24.9087 31.1227 24.0972 30.4363C23.2858 29.7499 22.7438 28.7981 22.5675 27.75H24.75C24.9489 27.75 25.1397 27.671 25.2803 27.5303C25.421 27.3897 25.5 27.1989 25.5 27C25.5 26.8011 25.421 26.6103 25.2803 26.4697C25.1397 26.329 24.9489 26.25 24.75 26.25H22.5V24.75H24.75C24.9489 24.75 25.1397 24.671 25.2803 24.5303C25.421 24.3897 25.5 24.1989 25.5 24C25.5 23.8011 25.421 23.6103 25.2803 23.4697C25.1397 23.329 24.9489 23.25 24.75 23.25H22.5675C22.7455 22.2026 23.2879 21.2518 24.099 20.5656C24.9101 19.8794 25.9376 19.502 27 19.5Z" fill="white"/>
<path d="M35.25 27C35.0511 27 34.8603 27.079 34.7197 27.2197C34.579 27.3603 34.5 27.5511 34.5 27.75C34.498 29.5396 33.7862 31.2553 32.5208 32.5208C31.2553 33.7862 29.5396 34.498 27.75 34.5H26.25C24.4605 34.4978 22.7448 33.786 21.4794 32.5206C20.214 31.2552 19.5022 29.5395 19.5 27.75C19.5 27.5511 19.421 27.3603 19.2803 27.2197C19.1397 27.079 18.9489 27 18.75 27C18.5511 27 18.3603 27.079 18.2197 27.2197C18.079 27.3603 18 27.5511 18 27.75C18.0026 29.9372 18.8726 32.0342 20.4192 33.5808C21.9658 35.1274 24.0628 35.9974 26.25 36H27.75C29.9372 35.9974 32.0342 35.1274 33.5808 33.5808C35.1274 32.0342 35.9974 29.9372 36 27.75C36 27.5511 35.921 27.3603 35.7803 27.2197C35.6397 27.079 35.4489 27 35.25 27Z" fill="white"/>
</g>
<defs>
<clipPath id="clip0_31_4">
<rect width="18" height="18" fill="white" transform="translate(18 18)"/>
</clipPath>
</defs>
</svg>
