<svg width="54" height="54" viewBox="0 0 54 54" fill="none" xmlns="http://www.w3.org/2000/svg">
<circle cx="27" cy="27" r="27" fill="#272B30"/>
<g clip-path="url(#clip0_31_5)">
<path d="M32.25 22.5V21C32.25 20.2044 31.9339 19.4413 31.3713 18.8787C30.8087 18.3161 30.0456 18 29.25 18H24.75C23.9544 18 23.1913 18.3161 22.6287 18.8787C22.0661 19.4413 21.75 20.2044 21.75 21V22.5C20.7558 22.5012 19.8027 22.8967 19.0997 23.5997C18.3967 24.3027 18.0012 25.2558 18 26.25V30C18.0012 30.9942 18.3967 31.9473 19.0997 32.6503C19.8027 33.3533 20.7558 33.7488 21.75 33.75C21.75 34.3467 21.9871 34.919 22.409 35.341C22.831 35.7629 23.4033 36 24 36H30C30.5967 36 31.169 35.7629 31.591 35.341C32.0129 34.919 32.25 34.3467 32.25 33.75C33.2442 33.7488 34.1973 33.3533 34.9003 32.6503C35.6033 31.9473 35.9988 30.9942 36 30V26.25C35.9988 25.2558 35.6033 24.3027 34.9003 23.5997C34.1973 22.8967 33.2442 22.5012 32.25 22.5ZM23.25 21C23.25 20.6022 23.408 20.2206 23.6893 19.9393C23.9706 19.658 24.3522 19.5 24.75 19.5H29.25C29.6478 19.5 30.0294 19.658 30.3107 19.9393C30.592 20.2206 30.75 20.6022 30.75 21V22.5H23.25V21ZM30.75 33.75C30.75 33.9489 30.671 34.1397 30.5303 34.2803C30.3897 34.421 30.1989 34.5 30 34.5H24C23.8011 34.5 23.6103 34.421 23.4697 34.2803C23.329 34.1397 23.25 33.9489 23.25 33.75V30.75C23.25 30.5511 23.329 30.3603 23.4697 30.2197C23.6103 30.079 23.8011 30 24 30H30C30.1989 30 30.3897 30.079 30.5303 30.2197C30.671 30.3603 30.75 30.5511 30.75 30.75V33.75ZM34.5 30C34.5 30.5967 34.2629 31.169 33.841 31.591C33.419 32.0129 32.8467 32.25 32.25 32.25V30.75C32.25 30.1533 32.0129 29.581 31.591 29.159C31.169 28.7371 30.5967 28.5 30 28.5H24C23.4033 28.5 22.831 28.7371 22.409 29.159C21.9871 29.581 21.75 30.1533 21.75 30.75V32.25C21.1533 32.25 20.581 32.0129 20.159 31.591C19.7371 31.169 19.5 30.5967 19.5 30V26.25C19.5 25.6533 19.7371 25.081 20.159 24.659C20.581 24.2371 21.1533 24 21.75 24H32.25C32.8467 24 33.419 24.2371 33.841 24.659C34.2629 25.081 34.5 25.6533 34.5 26.25V30Z" fill="white"/>
<path d="M31.5 25.5H30C29.8011 25.5 29.6103 25.579 29.4697 25.7197C29.329 25.8603 29.25 26.0511 29.25 26.25C29.25 26.4489 29.329 26.6397 29.4697 26.7803C29.6103 26.921 29.8011 27 30 27H31.5C31.6989 27 31.8897 26.921 32.0303 26.7803C32.171 26.6397 32.25 26.4489 32.25 26.25C32.25 26.0511 32.171 25.8603 32.0303 25.7197C31.8897 25.579 31.6989 25.5 31.5 25.5Z" fill="white"/>
</g>
<defs>
<clipPath id="clip0_31_5">
<rect width="18" height="18" fill="white" transform="translate(18 18)"/>
</clipPath>
</defs>
</svg>
