<svg width="54" height="54" viewBox="0 0 54 54" fill="none" xmlns="http://www.w3.org/2000/svg">
<circle cx="27" cy="27" r="27" fill="#00B1F0"/>
<g clip-path="url(#clip0_15_43)">
<path d="M31.992 18.6975L22.848 27.8415C22.4988 28.1889 22.2219 28.602 22.0334 29.0571C21.845 29.5122 21.7486 30.0002 21.75 30.4927V31.5C21.75 31.6989 21.829 31.8897 21.9697 32.0303C22.1103 32.171 22.3011 32.25 22.5 32.25H23.5073C23.9998 32.2514 24.4878 32.1551 24.9429 31.9666C25.398 31.7781 25.8112 31.5012 26.1585 31.152L35.3025 22.008C35.7408 21.5686 35.987 20.9733 35.987 20.3527C35.987 19.7321 35.7408 19.1369 35.3025 18.6975C34.8568 18.2714 34.2639 18.0336 33.6473 18.0336C33.0306 18.0336 32.4378 18.2714 31.992 18.6975V18.6975ZM34.242 20.9475L25.098 30.0915C24.6751 30.5118 24.1035 30.7484 23.5073 30.75H23.25V30.4927C23.2516 29.8965 23.4882 29.3249 23.9085 28.902L33.0525 19.758C33.2127 19.605 33.4257 19.5196 33.6473 19.5196C33.8688 19.5196 34.0818 19.605 34.242 19.758C34.3995 19.9159 34.4879 20.1298 34.4879 20.3527C34.4879 20.5757 34.3995 20.7896 34.242 20.9475V20.9475Z" fill="white"/>
<path d="M35.25 24.7343C35.0511 24.7343 34.8603 24.8133 34.7197 24.9539C34.579 25.0946 34.5 25.2853 34.5 25.4843V29.25H31.5C30.9033 29.25 30.331 29.4871 29.909 29.909C29.4871 30.331 29.25 30.9033 29.25 31.5V34.5H21.75C21.1533 34.5 20.581 34.2629 20.159 33.841C19.7371 33.419 19.5 32.8467 19.5 32.25V21.75C19.5 21.1533 19.7371 20.581 20.159 20.159C20.581 19.7371 21.1533 19.5 21.75 19.5H28.5315C28.7304 19.5 28.9212 19.421 29.0618 19.2803C29.2025 19.1397 29.2815 18.9489 29.2815 18.75C29.2815 18.5511 29.2025 18.3603 29.0618 18.2197C28.9212 18.079 28.7304 18 28.5315 18H21.75C20.7558 18.0012 19.8027 18.3967 19.0997 19.0997C18.3967 19.8027 18.0012 20.7558 18 21.75V32.25C18.0012 33.2442 18.3967 34.1973 19.0997 34.9003C19.8027 35.6033 20.7558 35.9988 21.75 36H30.2573C30.7499 36.0014 31.238 35.9051 31.6932 35.7166C32.1484 35.5281 32.5618 35.2513 32.9092 34.902L34.9012 32.9085C35.2506 32.5612 35.5275 32.148 35.7161 31.6929C35.9047 31.2378 36.0012 30.7499 36 30.2573V25.4843C36 25.2853 35.921 25.0946 35.7803 24.9539C35.6397 24.8133 35.4489 24.7343 35.25 24.7343ZM31.8488 33.8415C31.5473 34.1423 31.166 34.3505 30.75 34.4415V31.5C30.75 31.3011 30.829 31.1103 30.9697 30.9697C31.1103 30.829 31.3011 30.75 31.5 30.75H34.4437C34.351 31.1651 34.143 31.5457 33.8438 31.848L31.8488 33.8415Z" fill="white"/>
</g>
<defs>
<clipPath id="clip0_15_43">
<rect width="18" height="18" fill="white" transform="translate(18 18)"/>
</clipPath>
</defs>
</svg>
