<svg width="54" height="54" viewBox="0 0 54 54" fill="none" xmlns="http://www.w3.org/2000/svg">
<circle cx="27" cy="27" r="27" fill="#F4F4F4"/>
<g clip-path="url(#clip0_13_3)">
<path d="M33 18H21C20.2044 18 19.4413 18.3161 18.8787 18.8787C18.3161 19.4413 18 20.2044 18 21V30C18 30.7956 18.3161 31.5587 18.8787 32.1213C19.4413 32.6839 20.2044 33 21 33H23.175L26.5132 35.8223C26.6487 35.9369 26.8203 35.9997 26.9977 35.9997C27.1752 35.9997 27.3468 35.9369 27.4822 35.8223L30.825 33H33C33.7956 33 34.5587 32.6839 35.1213 32.1213C35.6839 31.5587 36 30.7956 36 30V21C36 20.2044 35.6839 19.4413 35.1213 18.8787C34.5587 18.3161 33.7956 18 33 18V18ZM34.5 30C34.5 30.3978 34.342 30.7794 34.0607 31.0607C33.7794 31.342 33.3978 31.5 33 31.5H30.825C30.4705 31.5001 30.1274 31.6258 29.8568 31.8547L27 34.2675L24.1447 31.8547C23.8737 31.6255 23.53 31.4998 23.175 31.5H21C20.6022 31.5 20.2206 31.342 19.9393 31.0607C19.658 30.7794 19.5 30.3978 19.5 30V21C19.5 20.6022 19.658 20.2206 19.9393 19.9393C20.2206 19.658 20.6022 19.5 21 19.5H33C33.3978 19.5 33.7794 19.658 34.0607 19.9393C34.342 20.2206 34.5 20.6022 34.5 21V30Z" fill="#131517"/>
<path d="M23.25 23.25H27C27.1989 23.25 27.3897 23.171 27.5303 23.0303C27.671 22.8897 27.75 22.6989 27.75 22.5C27.75 22.3011 27.671 22.1103 27.5303 21.9697C27.3897 21.829 27.1989 21.75 27 21.75H23.25C23.0511 21.75 22.8603 21.829 22.7197 21.9697C22.579 22.1103 22.5 22.3011 22.5 22.5C22.5 22.6989 22.579 22.8897 22.7197 23.0303C22.8603 23.171 23.0511 23.25 23.25 23.25Z" fill="#131517"/>
<path d="M30.75 24.75H23.25C23.0511 24.75 22.8603 24.829 22.7197 24.9697C22.579 25.1103 22.5 25.3011 22.5 25.5C22.5 25.6989 22.579 25.8897 22.7197 26.0303C22.8603 26.171 23.0511 26.25 23.25 26.25H30.75C30.9489 26.25 31.1397 26.171 31.2803 26.0303C31.421 25.8897 31.5 25.6989 31.5 25.5C31.5 25.3011 31.421 25.1103 31.2803 24.9697C31.1397 24.829 30.9489 24.75 30.75 24.75Z" fill="#131517"/>
<path d="M30.75 27.75H23.25C23.0511 27.75 22.8603 27.829 22.7197 27.9697C22.579 28.1103 22.5 28.3011 22.5 28.5C22.5 28.6989 22.579 28.8897 22.7197 29.0303C22.8603 29.171 23.0511 29.25 23.25 29.25H30.75C30.9489 29.25 31.1397 29.171 31.2803 29.0303C31.421 28.8897 31.5 28.6989 31.5 28.5C31.5 28.3011 31.421 28.1103 31.2803 27.9697C31.1397 27.829 30.9489 27.75 30.75 27.75Z" fill="#131517"/>
</g>
<defs>
<clipPath id="clip0_13_3">
<rect width="18" height="18" fill="white" transform="translate(18 18)"/>
</clipPath>
</defs>
</svg>
